<svg xmlns="http://www.w3.org/2000/svg" width="460" height="360" viewBox="0 0 460 360"><text x="230" y="28" text-anchor="middle" fill="#f0f6fc" font-family="ui-sans-serif,Segoe UI,Arial" font-size="16" font-weight="700">Project Exposure</text><polygon points="230.0,167.6 249.4,178.8 249.4,201.2 230.0,212.4 210.6,201.2 210.6,178.8" fill="none" stroke="#30363d" stroke-width="1"/><polygon points="230.0,145.2 268.8,167.6 268.8,212.4 230.0,234.8 191.2,212.4 191.2,167.6" fill="none" stroke="#30363d" stroke-width="1"/><polygon points="230.0,122.8 288.2,156.4 288.2,223.6 230.0,257.2 171.8,223.6 171.8,156.4" fill="none" stroke="#30363d" stroke-width="1"/><polygon points="230.0,100.4 307.6,145.2 307.6,234.8 230.0,279.6 152.4,234.8 152.4,145.2" fill="none" stroke="#30363d" stroke-width="1"/><polygon points="230.0,78.0 327.0,134.0 327.0,246.0 230.0,302.0 133.0,246.0 133.0,134.0" fill="none" stroke="#30363d" stroke-width="1"/><line x1="230" y1="190" x2="230.0" y2="78.0" stroke="#30363d"/><text x="230.0" y="52.0" text-anchor="middle" fill="#c9d1d9" font-family="ui-sans-serif,Segoe UI,Arial" font-size="12">Backend</text><line x1="230" y1="190" x2="327.0" y2="134.0" stroke="#30363d"/><text x="353.0" y="123.0" text-anchor="middle" fill="#c9d1d9" font-family="ui-sans-serif,Segoe UI,Arial" font-size="12">Apps</text><line x1="230" y1="190" x2="327.0" y2="246.0" stroke="#30363d"/><text x="353.0" y="265.0" text-anchor="middle" fill="#c9d1d9" font-family="ui-sans-serif,Segoe UI,Arial" font-size="12">AI / ML</text><line x1="230" y1="190" x2="230.0" y2="302.0" stroke="#30363d"/><text x="230.0" y="336.0" text-anchor="middle" fill="#c9d1d9" font-family="ui-sans-serif,Segoe UI,Arial" font-size="12">Embedded</text><line x1="230" y1="190" x2="133.0" y2="246.0" stroke="#30363d"/><text x="107.0" y="265.0" text-anchor="middle" fill="#c9d1d9" font-family="ui-sans-serif,Segoe UI,Arial" font-size="12">Robotics</text><line x1="230" y1="190" x2="133.0" y2="134.0" stroke="#30363d"/><text x="107.0" y="123.0" text-anchor="middle" fill="#c9d1d9" font-family="ui-sans-serif,Segoe UI,Arial" font-size="12">Computer Vision</text><polygon points="230.0,84.7 315.4,140.7 313.4,238.2 230.0,279.6 156.3,232.6 160.2,149.7" fill="#ffa500" fill-opacity=".20" stroke="#ffa500" stroke-width="2"/><circle cx="230.0" cy="84.7" r="3.5" fill="#f0f6fc"/><circle cx="315.4" cy="140.7" r="3.5" fill="#f0f6fc"/><circle cx="313.4" cy="238.2" r="3.5" fill="#f0f6fc"/><circle cx="230.0" cy="279.6" r="3.5" fill="#f0f6fc"/><circle cx="156.3" cy="232.6" r="3.5" fill="#f0f6fc"/><circle cx="160.2" cy="149.7" r="3.5" fill="#f0f6fc"/></svg>